<svg xmlns="http://www.w3.org/2000/svg" width="12.105" height="11.302" viewBox="0 0 12.105 11.302">
  <g id="그룹_131" data-name="그룹 131" transform="translate(-98.213 -3840.938)">
    <g id="noun_Clip_1887657" transform="translate(98.213 3840.938)">
      <g id="Camada_2" data-name="Camada 2" transform="translate(0 0)">
        <g id="Your_Icon" data-name="Your Icon" transform="translate(0 0)">
          <path id="패스_17" data-name="패스 17" d="M0,8.691a2.57,2.57,0,0,1,.792-1.86l5.214-5.21c.126-.126.248-.255.376-.379a.306.306,0,1,1,.424.432L2.546,5.933c-.46.46-.926.914-1.375,1.385A1.89,1.89,0,0,0,.719,9.356a1.89,1.89,0,0,0,1.633,1.319,1.972,1.972,0,0,0,1.725-.632L9.984,4.134c.39-.391.792-.772,1.161-1.182a1.321,1.321,0,0,0,.235-1.48A1.352,1.352,0,0,0,10.12.611a1.427,1.427,0,0,0-1.1.469Q7.232,2.87,5.443,4.656C4.762,5.338,4.082,6.022,3.4,6.7a.9.9,0,0,0-.3.873.832.832,0,0,0,1.295.5,1.753,1.753,0,0,0,.222-.193Q6.694,5.8,8.773,3.72a.4.4,0,0,1,.3-.157.287.287,0,0,1,.259.417.568.568,0,0,1-.119.155l-4.23,4.23a1.438,1.438,0,0,1-1.532.391,1.459,1.459,0,0,1-.983-1.447,1.53,1.53,0,0,1,.471-1Q5.763,3.479,8.589.655a2.026,2.026,0,1,1,2.9,2.825Q9.168,5.813,6.836,8.138L4.483,10.491A2.6,2.6,0,0,1,0,8.691Z" transform="translate(0 0)" fill="#3aa9d1"/>
        </g>
      </g>
    </g>
  </g>
</svg>
