<svg xmlns="http://www.w3.org/2000/svg" width="24.555" height="24.723" viewBox="0 0 24.555 24.723">
  <g id="그룹_19" data-name="그룹 19" transform="translate(0.5 0.508)">
    <g id="Zoom_In" data-name="Zoom In">
      <g id="Calendar">
        <g id="그룹_18" data-name="그룹 18">
          <g id="그룹_17" data-name="그룹 17">
            <g id="그룹_16" data-name="그룹 16">
              <g id="그룹_15" data-name="그룹 15">
                <g id="그룹_14" data-name="그룹 14">
                  <g id="그룹_13" data-name="그룹 13">
                    <g id="그룹_12" data-name="그룹 12">
                      <g id="그룹_11" data-name="그룹 11">
                        <g id="Play_-_Orange" data-name="Play - Orange">
                          <g id="Arrow_Right_-_Orange" data-name="Arrow Right - Orange">
                            <g id="그룹_10" data-name="그룹 10">
                              <path id="패스_13" data-name="패스 13" d="M23.555,16.473V17.81a1.742,1.742,0,0,1-.038.186A10.516,10.516,0,0,1,21.6,23.245a11.5,11.5,0,0,1-5.352,4.16,11.821,11.821,0,0,1-4.3.81,23.245,23.245,0,0,1-3.668-.348.763.763,0,0,0-.589.119,10.045,10.045,0,0,1-4.24,1.7,9.546,9.546,0,0,1-1.519.095.706.706,0,0,1-.607-.441.913.913,0,0,1,.044-.823,3.185,3.185,0,0,1,.219-.348,15.692,15.692,0,0,0,1.682-3.1.256.256,0,0,0,.035-.178.233.233,0,0,0-.089-.151,10.938,10.938,0,0,1-2.066-2.817,10.287,10.287,0,0,1-.975-2.906c-.068-.394-.12-.81-.179-1.2V16.473q.027-.113.042-.23A10.57,10.57,0,0,1,1.456,11.8a11.281,11.281,0,0,1,3.3-3.541A11.894,11.894,0,0,1,8.847,6.42a12.39,12.39,0,0,1,6.831.27,11.692,11.692,0,0,1,3.533,1.864,11.22,11.22,0,0,1,3.008,3.484,10.175,10.175,0,0,1,1.152,3.206C23.442,15.652,23.494,16.063,23.555,16.473Z" transform="translate(0 -6.065)" fill="none" stroke="#707070" stroke-width="1"/>
                            </g>
                          </g>
                        </g>
                      </g>
                    </g>
                  </g>
                </g>
              </g>
            </g>
          </g>
        </g>
      </g>
    </g>
  </g>
</svg>
