<svg xmlns="http://www.w3.org/2000/svg" width="12.994" height="13.082" viewBox="0 0 12.994 13.082">
  <path id="패스_13" data-name="패스 13" d="M12.993,11.806v.738a.96.96,0,0,1-.021.1,5.8,5.8,0,0,1-1.055,2.895,6.341,6.341,0,0,1-2.952,2.295,6.521,6.521,0,0,1-2.373.447,12.822,12.822,0,0,1-2.023-.192.421.421,0,0,0-.325.066,5.541,5.541,0,0,1-2.339.937,5.266,5.266,0,0,1-.838.052A.389.389,0,0,1,.733,18.9a.5.5,0,0,1,.024-.454,1.757,1.757,0,0,1,.121-.192,8.656,8.656,0,0,0,.928-1.71.141.141,0,0,0,.019-.1.128.128,0,0,0-.049-.083A6.034,6.034,0,0,1,.637,14.81a5.674,5.674,0,0,1-.538-1.6c-.038-.218-.066-.447-.1-.663v-.738q.015-.063.023-.127A5.831,5.831,0,0,1,.8,9.229,6.223,6.223,0,0,1,2.622,7.275,6.561,6.561,0,0,1,4.88,6.261a6.834,6.834,0,0,1,3.768.149A6.449,6.449,0,0,1,10.6,7.438,6.189,6.189,0,0,1,12.257,9.36a5.613,5.613,0,0,1,.635,1.769C12.931,11.353,12.96,11.58,12.993,11.806Z" transform="translate(0.001 -6.065)" fill="#d4d4d4"/>
</svg>
