<svg xmlns="http://www.w3.org/2000/svg" viewBox="0 0 30.44 38.05"><title>피드 w0</title><g id="레이어_2" data-name="레이어 2"><g id="레이어_1-2" data-name="레이어 1"><path d="M24.56.42l5.62,7a1.09,1.09,0,0,1,.26.71V36.91a1.14,1.14,0,0,1-1.14,1.14H1.14A1.14,1.14,0,0,1,0,36.91V1.14A1.14,1.14,0,0,1,1.14,0H23.67A1.17,1.17,0,0,1,24.56.42Zm2.31,17.87a.57.57,0,1,0,0-1.13H3.7a.57.57,0,1,0,0,1.13m23.17,11.4a.57.57,0,0,0,.57-.57.58.58,0,0,0-.57-.57H3.7a.57.57,0,0,0-.57.57.56.56,0,0,0,.57.57M26.87,24a.57.57,0,0,0,.57-.57.58.58,0,0,0-.57-.57H3.7a.57.57,0,0,0-.57.57A.56.56,0,0,0,3.7,24m11-11.39a.57.57,0,0,0,.57-.57.56.56,0,0,0-.57-.57H3.7a.56.56,0,0,0-.57.57.57.57,0,0,0,.57.57" fill="#fff"/></g></g></svg>