<svg xmlns="http://www.w3.org/2000/svg" viewBox="0 0 30.44 38.05"><title>문서 w-</title><g id="레이어_2" data-name="레이어 2"><g id="레이어_1-2" data-name="레이어 1"><path d="M23.5,1.5l5.44,6.73V36.55H1.5V1.5h22M23.67,0H1.14A1.14,1.14,0,0,0,0,1.14V36.91a1.14,1.14,0,0,0,1.14,1.14H29.3a1.14,1.14,0,0,0,1.14-1.14V8.1a1.09,1.09,0,0,0-.26-.71l-5.62-7A1.17,1.17,0,0,0,23.67,0Z" fill="#fff"/><path d="M26.87,18.29a.57.57,0,1,0,0-1.13H3.7a.57.57,0,1,0,0,1.13" fill="#fff"/><path d="M26.87,29.69a.57.57,0,0,0,.57-.57.58.58,0,0,0-.57-.57H3.7a.57.57,0,0,0-.57.57.56.56,0,0,0,.57.57" fill="#fff"/><path d="M26.87,24a.57.57,0,0,0,.57-.57.58.58,0,0,0-.57-.57H3.7a.57.57,0,0,0-.57.57A.56.56,0,0,0,3.7,24" fill="#fff"/><path d="M14.71,12.6a.57.57,0,0,0,.57-.57.56.56,0,0,0-.57-.57H3.7a.56.56,0,0,0-.57.57.57.57,0,0,0,.57.57" fill="#fff"/></g></g></svg>