<svg xmlns="http://www.w3.org/2000/svg" viewBox="0 0 37.62 37.38"><title>지도 w-</title><g id="레이어_2" data-name="레이어 2"><g id="레이어_1-2" data-name="레이어 1"><path d="M36.12,1.63V33.46L25.69,35.29V33.22l1.24-2.39c.91-1.74,5.47-10.64,6.31-14.67a9.24,9.24,0,0,0-2-7.8,10.49,10.49,0,0,0-5.55-3.53V4.25L36.12,1.63M36.48,0a1.33,1.33,0,0,0-.28,0L25.05,2.87A1.14,1.14,0,0,0,24.19,4V5.12a1.12,1.12,0,0,0,.89,1.11,8.93,8.93,0,0,1,5,3.07,7.78,7.78,0,0,1,1.69,6.56c-.81,3.9-5.62,13.23-6.17,14.28l-1.28,2.47a1.06,1.06,0,0,0-.13.52v2.59a1.14,1.14,0,0,0,1.14,1.14l.2,0,11.15-2a1.15,1.15,0,0,0,.94-1.13V1.17A1.14,1.14,0,0,0,36.48,0Z" fill="#fff"/><path d="M14.8,2.21l6.32,2.07v.6a10.51,10.51,0,0,0-5.38,3.53A9.7,9.7,0,0,0,14.8,9.8V2.21m0,17.18A121.19,121.19,0,0,0,20,30.62l1.13,2.24v2.58L14.8,34.18V19.39M14.44.57A1.14,1.14,0,0,0,13.3,1.72V34.48a1.13,1.13,0,0,0,.92,1.11l7,1.4a.83.83,0,0,0,.22,0,1.14,1.14,0,0,0,1.14-1.14V32.77a1.13,1.13,0,0,0-.12-.51l-1.17-2.32c-.87-1.68-5.3-10.33-6.06-14.08a7.77,7.77,0,0,1,1.64-6.51,8.88,8.88,0,0,1,4.85-3.08,1.14,1.14,0,0,0,.86-1.11V4a1.14,1.14,0,0,0-.78-1.08L14.8.63a1.13,1.13,0,0,0-.36-.06Z" fill="#fff"/><path d="M10.29,1.62V33.81l-8.79,2V4.17l8.79-2.55M10.66,0a.86.86,0,0,0-.32.05L.82,2.81A1.15,1.15,0,0,0,0,3.9V36.24a1.14,1.14,0,0,0,1.14,1.14l.25,0,9.51-2.15a1.14,1.14,0,0,0,.89-1.12V1.14A1.14,1.14,0,0,0,10.66,0Z" fill="#fff"/><path d="M23.54,10.22a4,4,0,1,1-4,4,4,4,0,0,1,4-4m0-1.5a5.5,5.5,0,1,0,5.5,5.5,5.5,5.5,0,0,0-5.5-5.5Z" fill="#fff"/></g></g></svg>