<svg xmlns="http://www.w3.org/2000/svg" viewBox="0 0 37.62 37.38"><title>지도 w0</title><g id="레이어_2" data-name="레이어 2"><g id="레이어_1-2" data-name="레이어 1"><path d="M24.19,4V5.12a1.12,1.12,0,0,0,.89,1.11,8.93,8.93,0,0,1,5,3.07,7.78,7.78,0,0,1,1.69,6.56c-.81,3.9-5.62,13.23-6.17,14.28l-1.28,2.47a1.06,1.06,0,0,0-.13.52v2.59a1.14,1.14,0,0,0,1.34,1.12l11.15-2a1.15,1.15,0,0,0,.94-1.13V1.17A1.15,1.15,0,0,0,36.2.06L25.05,2.87A1.14,1.14,0,0,0,24.19,4Z" fill="#fff"/><path d="M15.27,15.86a7.77,7.77,0,0,1,1.64-6.51,8.85,8.85,0,0,1,4.85-3.08,1.14,1.14,0,0,0,.86-1.11V4a1.14,1.14,0,0,0-.78-1.08L14.8.63a1.15,1.15,0,0,0-1.5,1.09V34.48a1.13,1.13,0,0,0,.92,1.11l7,1.4a1.13,1.13,0,0,0,1.36-1.11V32.77a1.13,1.13,0,0,0-.12-.51l-1.17-2.32C20.46,28.26,16,19.61,15.27,15.86Z" fill="#fff"/><path d="M30.23,15.54a6.21,6.21,0,0,0-1.37-5.25,7.11,7.11,0,0,0-5.35-2.67h-.1a7.13,7.13,0,0,0-5.27,2.7,6.28,6.28,0,0,0-1.34,5.22c.72,3.52,5.07,12,5.93,13.7l.77,1.53.71-1.35C24.42,29,29.45,19.34,30.23,15.54Zm-6.88,2.2A3.52,3.52,0,0,1,20,14.2a3.57,3.57,0,0,1,3.38-3.55h.17a3.56,3.56,0,1,1,0,7.11Z" fill="#fff"/><path d="M.82,2.81,10.34.05a1.13,1.13,0,0,1,1.45,1.09v33a1.14,1.14,0,0,1-.89,1.12L1.39,37.36A1.15,1.15,0,0,1,0,36.24V3.9A1.15,1.15,0,0,1,.82,2.81Z" fill="#fff"/></g></g></svg>