<svg xmlns="http://www.w3.org/2000/svg" viewBox="0 0 38.05 31.3"><title>메세지 w0</title><g id="레이어_2" data-name="레이어 2"><g id="레이어_1-2" data-name="레이어 1"><path d="M21.5,8H3.23A3.37,3.37,0,0,0,0,11.46v11A3.36,3.36,0,0,0,3.22,26H5.78v3.91c0,1.59.77,1.88,1.71.66L11,26H21.5a3.36,3.36,0,0,0,3.23-3.47h0v-11A3.37,3.37,0,0,0,21.5,8Z" fill="#fff"/><path d="M33.17,0H16.05a5.1,5.1,0,0,0-4.9,5.25v.69H21a5.73,5.73,0,0,1,5.53,5.93v8.61h2.88l2.9,3.73c.92,1.19,1.67.9,1.66-.65V20.42a5.29,5.29,0,0,0,4.09-5.28V5.25A5.08,5.08,0,0,0,33.17,0Z" fill="#fff"/></g></g></svg>