<svg xmlns="http://www.w3.org/2000/svg" viewBox="0 0 38.05 32.66"><title>메세지 w-</title><g id="레이어_2" data-name="레이어 2"><g id="레이어_1-2" data-name="레이어 1"><path d="M21.5,9.81A2,2,0,0,1,23.23,12V23.48A2,2,0,0,1,21.5,25.6H10.25l-.45.61L7.28,29.63v-4H3.22A2,2,0,0,1,1.5,23.48V12A2,2,0,0,1,3.23,9.81H21.5m0-1.5H3.23A3.47,3.47,0,0,0,0,12V23.48A3.44,3.44,0,0,0,3.22,27.1H5.78v4.09c0,1,.27,1.47.67,1.47s.65-.25,1-.78L11,27.1h10.5a3.43,3.43,0,0,0,3.22-3.61h0V12A3.47,3.47,0,0,0,21.5,8.31Z" fill="#fff"/><path d="M33.17,1.5c1.86,0,3.38,1.78,3.38,4V15.8a4,4,0,0,1-2.87,4l-1.22.23V23l-1.85-2.49-.45-.6H28V12.38c0-4.23-3.15-7.68-7-7.68H12.71a3.65,3.65,0,0,1,3.34-3.2H33.17m0-1.5H16.05c-2.68,0-4.9,2.45-4.9,5.48V6.2H21c3.05,0,5.53,2.74,5.53,6.18v9h2.88l2.9,3.9c.38.51.73.75,1,.75s.66-.49.65-1.44V21.3a5.47,5.47,0,0,0,4.09-5.5V5.48c0-3-2.2-5.48-4.88-5.48Z" fill="#fff"/></g></g></svg>