<svg xmlns="http://www.w3.org/2000/svg" viewBox="0 0 784 43.88"><title>검색바</title><g id="레이어_2" data-name="레이어 2"><g id="레이어_1-2" data-name="레이어 1"><line id="선_1" data-name="선 1" x1="18" y1="18" x2="766" y2="18" fill="none" stroke="#fff" stroke-linecap="round" stroke-miterlimit="10" stroke-width="36"/><g id="사각형_1495" data-name="사각형 1495"><rect x="16" y="8" width="15.17" height="15.17" rx="7.59" ry="7.59" fill="none"/><rect x="16.5" y="8.5" width="14.17" height="14.17" rx="7.09" ry="7.09" fill="none" stroke="#8bd4ee"/></g><g id="사각형_1494" data-name="사각형 1494"><path d="M27.14,21.25h0a.79.79,0,0,1,1.1.29l3.39,5.87a.8.8,0,0,1-.29,1.1h0a.81.81,0,0,1-1.11-.29l-3.38-5.87A.79.79,0,0,1,27.14,21.25Z" fill="#8bd4ee"/><path d="M27.39,21.68h0a.3.3,0,0,1,.42.11l3.39,5.87a.32.32,0,0,1-.11.42h0a.32.32,0,0,1-.42-.11L27.28,22.1A.3.3,0,0,1,27.39,21.68Z" fill="none" stroke="#8bd4ee"/></g><g id="검색" style="isolation:isolate"><text transform="translate(65 25)" font-size="18" fill="#8bd4ee" font-family="NotoSansCJKkr-Light-KSCpc-EUC-H, Noto Sans CJK KR" letter-spacing="0em" style="isolation:isolate">검색</text></g></g></g></svg>