<svg xmlns="http://www.w3.org/2000/svg" viewBox="0 0 37.82 37.86"><title>설정 w-</title><g id="레이어_2" data-name="레이어 2"><g id="레이어_1-2" data-name="레이어 1"><path d="M21.06,1.5a.41.41,0,0,1,.41.41V3.7a2.09,2.09,0,0,0,1.48,2,15.26,15.26,0,0,1,2.35,1l.05,0,0,0a2.24,2.24,0,0,0,.9.19,2.13,2.13,0,0,0,1.51-.62L29.09,5a.41.41,0,0,1,.29-.13.43.43,0,0,1,.29.13l3.07,3.07a.39.39,0,0,1,0,.58L31.46,10a2.17,2.17,0,0,0-.4,2.48l0,0v0a12,12,0,0,1,1,2.34,2.14,2.14,0,0,0,2,1.46h1.83a.44.44,0,0,1,.41.41V21.1a.41.41,0,0,1-.41.41H34.08a2.09,2.09,0,0,0-2,1.48,15.26,15.26,0,0,1-1,2.35l0,.05,0,.05a2.14,2.14,0,0,0,.43,2.41l1.28,1.28a.4.4,0,0,1,.12.29.41.41,0,0,1-.12.29l-3.07,3.07a.41.41,0,0,1-.29.12.4.4,0,0,1-.29-.12L27.81,31.5a2.15,2.15,0,0,0-1.52-.62,2.18,2.18,0,0,0-1,.23,13,13,0,0,1-2.37,1,2.14,2.14,0,0,0-1.46,2V36a.42.42,0,0,1-.41.41h-4.3a.41.41,0,0,1-.41-.41V34.12a2.09,2.09,0,0,0-1.48-2,13.66,13.66,0,0,1-2.35-1l0,0-.06,0a2.33,2.33,0,0,0-.9-.18,2.12,2.12,0,0,0-1.5.62L8.73,32.78a.41.41,0,0,1-.29.12.4.4,0,0,1-.29-.12L5.08,29.71A.43.43,0,0,1,5,29.42a.44.44,0,0,1,.15-.31l1.26-1.3a2.19,2.19,0,0,0,.4-2.49l0,0v0a12,12,0,0,1-1-2.34,2.16,2.16,0,0,0-2-1.46H1.91a.41.41,0,0,1-.41-.41v-4.3a.41.41,0,0,1,.41-.41H3.7a2.09,2.09,0,0,0,2-1.48,14.48,14.48,0,0,1,1-2.35l0,0,0-.06A2.13,2.13,0,0,0,6.32,10L5,8.73a.43.43,0,0,1-.13-.29A.41.41,0,0,1,5,8.15L8.11,5.08A.41.41,0,0,1,8.4,5a.43.43,0,0,1,.29.13L10,6.36A2.17,2.17,0,0,0,11.49,7a2.22,2.22,0,0,0,1-.22l0,0h0a12,12,0,0,1,2.34-1,2.16,2.16,0,0,0,1.46-2V1.91a.41.41,0,0,1,.41-.41h4.34m-2.15,27a9.62,9.62,0,1,0-9.62-9.62,9.64,9.64,0,0,0,9.62,9.62M21.06,0H16.72a1.91,1.91,0,0,0-1.91,1.91V3.74a.65.65,0,0,1-.44.6,14.52,14.52,0,0,0-2.59,1.07.59.59,0,0,1-.29.07A.62.62,0,0,1,11,5.29L9.75,4a1.88,1.88,0,0,0-2.7,0L4,7.09a1.88,1.88,0,0,0,0,2.7l1.27,1.28a.65.65,0,0,1,.12.75A17,17,0,0,0,4.3,14.41a.6.6,0,0,1-.6.44H1.91A1.91,1.91,0,0,0,0,16.76v4.3A1.92,1.92,0,0,0,1.91,23H3.74a.65.65,0,0,1,.6.44A14.12,14.12,0,0,0,5.41,26a.67.67,0,0,1-.12.76L4,28.06a1.9,1.9,0,0,0,0,2.71l3.07,3.07a1.91,1.91,0,0,0,2.7,0l1.28-1.28a.62.62,0,0,1,.44-.18.85.85,0,0,1,.31.06,16.13,16.13,0,0,0,2.59,1.08.6.6,0,0,1,.44.6V36a1.91,1.91,0,0,0,1.91,1.91h4.3A1.92,1.92,0,0,0,23,36V34.12a.65.65,0,0,1,.44-.6A14.64,14.64,0,0,0,26,32.44a.77.77,0,0,1,.3-.06.65.65,0,0,1,.46.18L28,33.84a1.91,1.91,0,0,0,1.36.56,1.88,1.88,0,0,0,1.35-.56l3.07-3.07a1.91,1.91,0,0,0,0-2.71l-1.28-1.27A.66.66,0,0,1,32.4,26a16,16,0,0,0,1.08-2.58.6.6,0,0,1,.6-.44h1.83a1.92,1.92,0,0,0,1.91-1.91V16.72a1.94,1.94,0,0,0-1.91-1.91H34.08a.65.65,0,0,1-.6-.44,13.85,13.85,0,0,0-1.08-2.59.66.66,0,0,1,.12-.75L33.8,9.75a1.9,1.9,0,0,0,0-2.7L30.73,4a1.89,1.89,0,0,0-1.35-.57A1.92,1.92,0,0,0,28,4L26.75,5.25a.6.6,0,0,1-.45.19A.73.73,0,0,1,26,5.37,16.93,16.93,0,0,0,23.41,4.3.6.6,0,0,1,23,3.7V1.91A1.92,1.92,0,0,0,21.06,0ZM18.91,27A8.12,8.12,0,1,1,27,18.91,8.1,8.1,0,0,1,18.91,27Z" fill="#fff"/></g></g></svg>