<svg xmlns="http://www.w3.org/2000/svg" viewBox="0 0 37.82 37.86"><title>설정 w0</title><g id="레이어_2" data-name="레이어 2"><g id="레이어_1-2" data-name="레이어 1"><path d="M35.91,14.81H34.08a.65.65,0,0,1-.6-.44,13.85,13.85,0,0,0-1.08-2.59.66.66,0,0,1,.12-.75L33.8,9.75a1.9,1.9,0,0,0,0-2.7L30.73,4A1.9,1.9,0,0,0,28,4L26.75,5.25a.66.66,0,0,1-.76.12A16.93,16.93,0,0,0,23.41,4.3.6.6,0,0,1,23,3.7V1.91A1.92,1.92,0,0,0,21.06,0H16.72a1.91,1.91,0,0,0-1.91,1.91V3.74a.65.65,0,0,1-.44.6,14.52,14.52,0,0,0-2.59,1.07A.66.66,0,0,1,11,5.29L9.75,4a1.88,1.88,0,0,0-2.7,0L4,7.09a1.88,1.88,0,0,0,0,2.7l1.27,1.28a.65.65,0,0,1,.12.75A17,17,0,0,0,4.3,14.41a.6.6,0,0,1-.6.44H1.91A1.91,1.91,0,0,0,0,16.76v4.3A1.92,1.92,0,0,0,1.91,23H3.74a.65.65,0,0,1,.6.44A14.12,14.12,0,0,0,5.41,26a.67.67,0,0,1-.12.76L4,28.06a1.9,1.9,0,0,0,0,2.71l3.07,3.07a1.9,1.9,0,0,0,2.7,0l1.28-1.28a.65.65,0,0,1,.75-.12,16.13,16.13,0,0,0,2.59,1.08.6.6,0,0,1,.44.6V36a1.91,1.91,0,0,0,1.91,1.91h4.3A1.92,1.92,0,0,0,23,36V34.12a.65.65,0,0,1,.44-.6A14.64,14.64,0,0,0,26,32.44a.67.67,0,0,1,.76.12L28,33.84a1.91,1.91,0,0,0,2.71,0l3.07-3.07a1.91,1.91,0,0,0,0-2.71l-1.28-1.27A.66.66,0,0,1,32.4,26a16,16,0,0,0,1.08-2.58.6.6,0,0,1,.6-.44h1.83a1.92,1.92,0,0,0,1.91-1.91V16.72A1.94,1.94,0,0,0,35.91,14.81ZM18.91,27A8.12,8.12,0,1,1,27,18.91,8.1,8.1,0,0,1,18.91,27Z" fill="#fff"/></g></g></svg>