<svg xmlns="http://www.w3.org/2000/svg" width="178.385" height="33.17" viewBox="0 0 178.385 33.17">
  <g id="그룹_49" data-name="그룹 49" transform="translate(-127.979 -386.937)">
    <path id="패스_232" data-name="패스 232" d="M135.906,419.508V392.579h-7.927v-5.642h21.833v5.642h-7.965v26.928Z" transform="translate(0 0)" fill="#fff"/>
    <path id="패스_233" data-name="패스 233" d="M149.521,402.544a13.555,13.555,0,0,1,2.607-4.146,13.174,13.174,0,0,1,4.276-3.078,12.438,12.438,0,0,1,5.043-1.068,12.556,12.556,0,0,1,9.276,3.847,13.761,13.761,0,0,1,2.821,4.231,12.274,12.274,0,0,1,1.026,4.873,13.152,13.152,0,0,1-.983,4.958,13.376,13.376,0,0,1-2.479,4.189,14.447,14.447,0,0,1-4.36,3.163,12.323,12.323,0,0,1-5.087,1.112,13.489,13.489,0,0,1-5.172-.984,12.116,12.116,0,0,1-4.146-2.906,12.908,12.908,0,0,1-2.779-4.317,13.55,13.55,0,0,1-.94-4.916A13.791,13.791,0,0,1,149.521,402.544Zm6.967,10.3a6.779,6.779,0,0,0,5.172,2.137,6.5,6.5,0,0,0,5-2.137,7.519,7.519,0,0,0,2.009-5.429,7.636,7.636,0,0,0-2.009-5.514,6.9,6.9,0,0,0-5.087-2.009,6.768,6.768,0,0,0-5.044,2.051,7.636,7.636,0,0,0-2.051,5.514A7.455,7.455,0,0,0,156.489,412.846Z" transform="translate(-1.464 -0.519)" fill="#fff"/>
    <path id="패스_234" data-name="패스 234" d="M195.375,419.508v-32.57h7.908l8.548,22.7,8.463-22.7h7.866v32.57h-5.685V396.555l-8.549,22.953h-4.231l-8.507-22.825v22.825Z" transform="translate(-4.78 0)" fill="#fff"/>
    <path id="패스_235" data-name="패스 235" d="M239.219,416.752a12.825,12.825,0,0,1-3.719-9.319,13.788,13.788,0,0,1,.9-4.958,12.423,12.423,0,0,1,2.692-4.188,11.52,11.52,0,0,1,4.1-2.864,13.165,13.165,0,0,1,5.087-.94,12.358,12.358,0,0,1,3.846.6,11.966,11.966,0,0,1,3.634,1.88v-1.88h5.685v24.962h-5.77v-2.009a13.061,13.061,0,0,1-3.505,1.88,10.492,10.492,0,0,1-3.633.642A12.581,12.581,0,0,1,239.219,416.752Zm14.533-14.576a6.879,6.879,0,0,0-5.044-2.094,7.158,7.158,0,0,0-7.352,7.352,7.5,7.5,0,0,0,2.137,5.471,6.936,6.936,0,0,0,5.215,2.18,6.791,6.791,0,0,0,5-2.18,7.206,7.206,0,0,0,2.18-5.215A7.557,7.557,0,0,0,253.753,402.176Z" transform="translate(-7.626 -0.535)" fill="#fff"/>
    <path id="패스_236" data-name="패스 236" d="M269.277,386.937h5.642v17.055l7.224-9.447h6.839l-9.147,11.883,10.772,13.079h-7.352l-8.336-10.6v10.6h-5.642Z" transform="translate(-10.022 0)" fill="#fff"/>
    <path id="패스_237" data-name="패스 237" d="M298.122,409.818a7.228,7.228,0,0,0,2.608,3.8,7.024,7.024,0,0,0,4.316,1.368,6.9,6.9,0,0,0,3.463-.9,8.879,8.879,0,0,0,2.692-2.308h6.326a16.028,16.028,0,0,1-5.258,6.582,12.214,12.214,0,0,1-7.224,2.266,13.17,13.17,0,0,1-5.129-.984,12.569,12.569,0,0,1-4.188-2.906,13.883,13.883,0,0,1-2.779-4.317,13.571,13.571,0,0,1-.94-4.916,13.793,13.793,0,0,1,.9-4.958,14.268,14.268,0,0,1,2.607-4.146,11.981,11.981,0,0,1,9.318-4.061,13.52,13.52,0,0,1,6.2,1.5,13.178,13.178,0,0,1,4.787,4.316,11.809,11.809,0,0,1,1.624,3.719,17.034,17.034,0,0,1,.556,4.53v1.411Zm2.907-8.72a7.052,7.052,0,0,0-2.607,3.463H311.5a7.375,7.375,0,0,0-2.522-3.505,6.723,6.723,0,0,0-3.889-1.111A7.077,7.077,0,0,0,301.029,401.1Z" transform="translate(-11.634 -0.525)" fill="#fff"/>
  </g>
</svg>
