<svg xmlns="http://www.w3.org/2000/svg" xmlns:xlink="http://www.w3.org/1999/xlink" width="46.969" height="46.97" viewBox="0 0 46.969 46.97">
  <defs>
    <filter id="타원_10" x="0" y="0" width="46.969" height="46.97" filterUnits="userSpaceOnUse">
      <feOffset dy="3" input="SourceAlpha"/>
      <feGaussianBlur stdDeviation="3" result="blur"/>
      <feFlood flood-opacity="0.161"/>
      <feComposite operator="in" in2="blur"/>
      <feComposite in="SourceGraphic"/>
    </filter>
  </defs>
  <g id="그룹_128" data-name="그룹 128" transform="translate(-1616 -161)">
    <g transform="matrix(1, 0, 0, 1, 1616, 161)" filter="url(#타원_10)">
      <circle id="타원_10-2" data-name="타원 10" cx="14.485" cy="14.485" r="14.485" transform="translate(9 6)" fill="#36b6e2"/>
    </g>
    <path id="패스_2" data-name="패스 2" d="M19.192,9.384h-.851a.3.3,0,0,1-.278-.2,6.323,6.323,0,0,0-.5-1.2.311.311,0,0,1,.056-.352l.592-.592a.882.882,0,0,0,0-1.258L16.786,4.351a.882.882,0,0,0-1.258,0l-.592.592A.306.306,0,0,1,14.584,5a7.508,7.508,0,0,0-1.2-.5.278.278,0,0,1-.2-.278V3.388a.888.888,0,0,0-.888-.888H10.272a.888.888,0,0,0-.888.888V4.24a.3.3,0,0,1-.2.278,6.323,6.323,0,0,0-1.2.5.311.311,0,0,1-.352-.056l-.592-.592a.882.882,0,0,0-1.258,0L4.351,5.794a.882.882,0,0,0,0,1.258l.592.592A.306.306,0,0,1,5,8a7.508,7.508,0,0,0-.5,1.2.278.278,0,0,1-.278.2H3.388a.888.888,0,0,0-.888.888v2a.888.888,0,0,0,.888.888H4.24a.3.3,0,0,1,.278.2,6.323,6.323,0,0,0,.5,1.2.311.311,0,0,1-.056.352l-.592.611a.882.882,0,0,0,0,1.258L5.794,18.23a.882.882,0,0,0,1.258,0l.592-.592A.306.306,0,0,1,8,17.582a7.508,7.508,0,0,0,1.2.5.278.278,0,0,1,.2.278v.851a.888.888,0,0,0,.888.888h2a.888.888,0,0,0,.888-.888v-.851a.3.3,0,0,1,.2-.278,6.865,6.865,0,0,0,1.2-.5.311.311,0,0,1,.352.056l.592.592a.882.882,0,0,0,1.258,0L18.211,16.8a.882.882,0,0,0,0-1.258l-.592-.592a.306.306,0,0,1-.056-.352,7.508,7.508,0,0,0,.5-1.2.278.278,0,0,1,.278-.2h.851a.888.888,0,0,0,.888-.888V10.272A.9.9,0,0,0,19.192,9.384Zm-7.9,5.681a3.775,3.775,0,1,1,3.775-3.775A3.767,3.767,0,0,1,11.29,15.065Z" transform="translate(1628.272 169.885)" fill="none" stroke="#fff" stroke-width="1"/>
  </g>
</svg>
