<svg xmlns="http://www.w3.org/2000/svg" width="16.232" height="15.132" viewBox="0 0 16.232 15.132">
  <g id="noun_Shop_1700218" transform="translate(3.75 -19)">
    <g id="그룹_44" data-name="그룹 44" transform="translate(-3.75 19)">
      <path id="패스_20" data-name="패스 20" d="M.511.512A.256.256,0,1,1,.511,0H3.3L4.32,3.4l12.163.962L14.558,9.194H5.671a1.045,1.045,0,0,0,.041,2.089l8.661-.02a.266.266,0,0,1,0,.532H5.692A1.567,1.567,0,0,1,5.364,8.7C4.545,5.979,3.726,3.256,2.907.512ZM6.47,12.429A1.351,1.351,0,1,1,5.118,13.78,1.35,1.35,0,0,1,6.47,12.429Zm6.389,0a1.351,1.351,0,0,1,0,2.7,1.351,1.351,0,0,1,0-2.7Z" transform="translate(-0.25)" fill="#afe0f1"/>
    </g>
  </g>
</svg>
