<svg xmlns="http://www.w3.org/2000/svg" width="262.248" height="29.463" viewBox="0 0 262.248 29.463">
  <g id="그룹_75" data-name="그룹 75" transform="translate(-1562 -219.228)">
    <g id="그룹_71" data-name="그룹 71" transform="translate(1562 219.449)">
      <path id="패스_245" data-name="패스 245" d="M202.654,301.81v-23.74h-6.988V273.1h19.248v4.974h-7.021v23.74Z" transform="translate(-195.666 -273.097)" fill="#36b6e2"/>
      <path id="패스_246" data-name="패스 246" d="M225.58,290.726a11.973,11.973,0,0,1,2.3-3.655,11.634,11.634,0,0,1,3.769-2.713,10.966,10.966,0,0,1,4.446-.942,11.072,11.072,0,0,1,8.177,3.391,12.138,12.138,0,0,1,2.487,3.73,10.817,10.817,0,0,1,.9,4.3,11.587,11.587,0,0,1-.867,4.371,11.786,11.786,0,0,1-2.185,3.693,12.739,12.739,0,0,1-3.844,2.789,10.864,10.864,0,0,1-4.484.98,11.886,11.886,0,0,1-4.56-.867,10.686,10.686,0,0,1-3.654-2.562,11.372,11.372,0,0,1-2.45-3.806,11.946,11.946,0,0,1-.829-4.333A12.149,12.149,0,0,1,225.58,290.726Zm6.142,9.082a5.976,5.976,0,0,0,4.56,1.884,5.728,5.728,0,0,0,4.409-1.884,6.627,6.627,0,0,0,1.771-4.786,6.73,6.73,0,0,0-1.771-4.861,6.078,6.078,0,0,0-4.484-1.771,5.965,5.965,0,0,0-4.447,1.809,6.733,6.733,0,0,0-1.809,4.861A6.574,6.574,0,0,0,231.722,299.808Z" transform="translate(-207.88 -277.425)" fill="#36b6e2"/>
      <path id="패스_247" data-name="패스 247" d="M290.739,301.81V273.1h6.971l7.536,20.009,7.461-20.009h6.933V301.81h-5.011V281.575l-7.536,20.235h-3.73l-7.5-20.122V301.81Z" transform="translate(-235.538 -273.097)" fill="#36b6e2"/>
      <path id="패스_248" data-name="패스 248" d="M350.62,303.373a11.3,11.3,0,0,1-3.279-8.215,12.153,12.153,0,0,1,.791-4.371,10.951,10.951,0,0,1,2.374-3.693,10.165,10.165,0,0,1,3.617-2.525,11.607,11.607,0,0,1,4.484-.829,10.9,10.9,0,0,1,3.391.528,10.553,10.553,0,0,1,3.2,1.658v-1.658h5.011v22.006h-5.087V304.5a11.555,11.555,0,0,1-3.09,1.658,9.251,9.251,0,0,1-3.2.565A11.087,11.087,0,0,1,350.62,303.373Zm12.811-12.85a6.063,6.063,0,0,0-4.446-1.846,6.31,6.31,0,0,0-6.481,6.481,6.608,6.608,0,0,0,1.884,4.823,6.114,6.114,0,0,0,4.6,1.922,5.982,5.982,0,0,0,4.409-1.922,6.352,6.352,0,0,0,1.922-4.6A6.659,6.659,0,0,0,363.431,290.523Z" transform="translate(-259.275 -277.56)" fill="#36b6e2"/>
      <path id="패스_249" data-name="패스 249" d="M394.988,273.1h4.974v15.035l6.368-8.328h6.029L404.3,290.28l9.5,11.531h-6.481l-7.348-9.345v9.345h-4.974Z" transform="translate(-279.257 -273.097)" fill="#36b6e2"/>
      <path id="패스_250" data-name="패스 250" d="M432.445,297.187a6.369,6.369,0,0,0,2.3,3.354,6.19,6.19,0,0,0,3.805,1.206,6.075,6.075,0,0,0,3.052-.791,7.83,7.83,0,0,0,2.374-2.035h5.576a14.122,14.122,0,0,1-4.635,5.8,10.771,10.771,0,0,1-6.368,2,11.6,11.6,0,0,1-4.521-.867,11.082,11.082,0,0,1-3.693-2.562,12.22,12.22,0,0,1-2.45-3.806,11.945,11.945,0,0,1-.829-4.333,12.163,12.163,0,0,1,.791-4.372,12.584,12.584,0,0,1,2.3-3.655,10.562,10.562,0,0,1,8.214-3.58,11.924,11.924,0,0,1,5.465,1.319,11.618,11.618,0,0,1,4.22,3.805,10.433,10.433,0,0,1,1.432,3.278,15.01,15.01,0,0,1,.49,3.995v1.243Zm2.562-7.687a6.221,6.221,0,0,0-2.3,3.052h11.53a6.5,6.5,0,0,0-2.223-3.09,5.926,5.926,0,0,0-3.429-.98A6.242,6.242,0,0,0,435.007,289.5Z" transform="translate(-292.706 -277.479)" fill="#36b6e2"/>
    </g>
    <path id="패스_251" data-name="패스 251" d="M566.586,301.651a14.467,14.467,0,1,0,0-28.935H503.758a14.467,14.467,0,1,0,0,28.935Z" transform="translate(1243.194 -53.488)" fill="#36b6e2"/>
  </g>
</svg>
