<svg id="그룹_60" data-name="그룹 60" xmlns="http://www.w3.org/2000/svg" width="50.934" height="50.933" viewBox="0 0 50.934 50.933">
  <g id="타원_7" data-name="타원 7" transform="translate(6.072 6.072)" fill="#fff" stroke="#1cceb6" stroke-width="1">
    <circle cx="19.39" cy="19.39" r="19.39" stroke="none"/>
    <circle cx="19.39" cy="19.39" r="18.89" fill="none"/>
  </g>
  <g id="noun_edit_1072352">
    <path id="패스_17" data-name="패스 17" d="M25.466,0A25.466,25.466,0,1,0,50.933,25.466,25.467,25.467,0,0,0,25.466,0ZM13.742,37.884a.577.577,0,0,1-.7-.688l1.277-5.77,5.056,5.082Zm7.007-2.751L15.693,30.05,28.5,17.182l5.059,5.083ZM37.394,18.411l-2.521,2.533-5.059-5.083,2.161-2.172a2.231,2.231,0,0,1,3.162,0l2.257,2.267a1.739,1.739,0,0,1,0,2.455Z" fill="#36b6e2"/>
  </g>
</svg>
